<?xml version="1.0" encoding="UTF-8" standalone="no"?>
<svg width="128px" height="128px" viewBox="0 0 128 128" version="1.1" xmlns="http://www.w3.org/2000/svg" xmlns:xlink="http://www.w3.org/1999/xlink">
    <!-- Generator: Sketch 3.6.1 (26313) - http://www.bohemiancoding.com/sketch -->
    <title>wp icon@1x</title>
    <desc>Created with Sketch.</desc>
    <defs></defs>
    <g id="Page-1" stroke="none" stroke-width="1" fill="none" fill-rule="evenodd">
        <g id="wp-icon">
            <g id="Page-1">
                <path d="M0,128 L128,128 L128,0 L0,0 L0,128 Z" id="Fill-1" fill="#3ABFE6"></path>
                <g id="Group-6" transform="translate(16.835052, 27.139827)" fill="#FFFFFF">
                    <path d="M19.284701,31.8556371 L23.019134,28.7836371 L18.2026392,30.3433897 L17.710433,29.6506062 L19.7016907,27.7253278 L17.0915464,28.7836371 C7.13261856,32.6064825 0.0635876289,42.2513485 0.0635876289,53.5522969 C0.0635876289,61.1544412 3.2662268,68.0044206 8.38754639,72.844668 C6.1891134,68.9795959 4.92362887,64.5101526 4.92362887,59.7451216 C4.92362887,48.5721732 11.9939794,38.6026887 21.7668454,34.6940701 L23.019134,31.7038845 L20.0883299,32.9680495 L19.284701,31.8556371 Z" id="Fill-2"></path>
                    <path d="M36.3079093,24.1707546 L42.5574763,13.1495588 L79.2195794,4.56036289 L36.3079093,24.1707546 Z M21.7660536,0.303373196 L35.2258474,14.8676619 L25.7353732,33.580734 L45.7917856,30.0006928 L54.923332,52.0272495 L93.6941361,1.16770309 L21.7660536,0.303373196 Z" id="Fill-4"></path>
                </g>
            </g>
        </g>
    </g>
</svg>